<svg width="640" height="223" viewBox="0 0 500 223" fill="none" xmlns="http://www.w3.org/2000/svg">
<!-- Logo icon part -->
<g transform="translate(0, 0)">
<path d="M96.146 222.137L114.504 211.661C115.334 211.142 115.852 210.313 115.852 209.276V207.824C115.852 205.749 113.571 204.505 111.807 205.438L92.2048 216.639C90.4416 217.677 90.4416 220.27 92.2048 221.307L93.4494 222.033C94.2791 222.551 95.3163 222.551 96.146 222.137Z" fill="url(#paint0_radial_2_286)"/>
<path d="M35.1602 187.495L53.5182 177.019C54.3479 176.501 54.8665 175.671 54.8665 174.634V173.078C54.8665 171.004 52.5847 169.759 50.8215 170.693L31.2189 181.894C29.4557 182.931 29.4557 185.524 31.2189 186.561L32.4636 187.287C33.2933 188.013 34.3305 188.013 35.1602 187.495Z" fill="url(#paint1_radial_2_286)"/>
<path d="M94.7977 100.476V94.5641C94.7977 92.4897 92.5159 91.2451 90.7527 92.2823L62.5416 108.566C61.7119 109.085 61.1933 109.914 61.1933 110.848V201.912C61.1933 202.845 61.7119 203.778 62.5416 204.193L90.7527 220.477C92.5159 221.514 94.7977 220.27 94.7977 218.195V100.476Z" fill="url(#paint2_radial_2_286)"/>
<path d="M29.7669 95.9124L1.55576 112.196C0.726022 112.715 0.207434 113.544 0.207434 114.478L0 167.27C0 168.203 0.518586 169.137 1.34832 169.552L29.5594 185.835C31.3226 186.873 33.6044 185.628 33.6044 183.554L33.8119 98.1942C33.8119 96.2236 31.5301 94.8752 29.7669 95.9124Z" fill="url(#paint3_radial_2_286)"/>
<path d="M27.485 55.3591L27.2775 76.5174C27.2775 77.4509 27.7961 78.3843 28.6259 78.9029L29.9742 79.6289C31.7374 80.6661 34.0192 79.4215 34.0192 77.3471L34.1229 54.7368C34.1229 52.6624 31.8411 51.3141 30.0779 52.3513L28.8333 53.0773C28.0035 53.4922 27.485 54.4256 27.485 55.3591Z" fill="url(#paint4_radial_2_286)"/>
<path d="M88.8857 20.6139L88.6783 41.7722C88.6783 42.7057 89.1969 43.6391 90.0266 44.1577L91.3749 44.8837C93.1381 45.9209 95.4199 44.6763 95.4199 42.6019L95.5236 19.9916C95.5236 17.9172 93.2419 16.5689 91.4787 17.6061L90.234 18.3321C89.4043 18.7469 88.8857 19.6804 88.8857 20.6139Z" fill="url(#paint5_radial_2_286)"/>
<path d="M133.484 114.997L138.67 118.004C140.433 119.042 142.715 117.797 142.715 115.723V83.1554C142.715 82.222 142.197 81.2885 141.367 80.8736L62.3343 35.238C61.5045 34.7194 60.4674 34.7194 59.6376 35.238L31.5302 51.5216C29.767 52.5588 29.767 55.1517 31.5302 56.1889L133.484 114.997Z" fill="url(#paint6_radial_2_286)"/>
<path d="M169.889 60.9599V28.3926C169.889 27.4592 169.371 26.5257 168.541 26.1108L123.942 0.38894C123.113 -0.129647 122.075 -0.129647 121.246 0.38894L93.0346 16.6726C91.2714 17.7097 91.2714 20.3027 93.0346 21.3398L165.844 63.3454C167.607 64.3826 169.889 63.0342 169.889 60.9599Z" fill="url(#paint7_radial_2_286)"/>
<path d="M205.672 79.3176L187.417 68.6347C186.588 68.1161 185.55 68.1161 184.721 68.6347L183.372 69.3607C181.609 70.3979 181.609 72.9909 183.372 74.028L202.871 85.3332C204.634 86.3704 206.916 85.1258 206.916 83.0514V81.7031C207.02 80.6659 206.501 79.8362 205.672 79.3176Z" fill="url(#paint8_radial_2_286)"/>
<path d="M203.805 150.675L185.55 139.889C184.721 139.37 183.683 139.37 182.854 139.889L181.505 140.615C179.742 141.652 179.742 144.245 181.505 145.282L201.004 156.587C202.767 157.624 205.049 156.38 205.049 154.305V152.957C205.049 152.024 204.634 151.09 203.805 150.675Z" fill="url(#paint9_radial_2_286)"/>
<path d="M101.021 141.341L95.8347 144.245C94.0715 145.282 94.0715 147.875 95.8347 148.912L124.046 165.196C124.876 165.714 125.913 165.714 126.743 165.196L205.671 119.664C206.501 119.145 207.02 118.315 207.02 117.382V84.8148C207.02 82.7404 204.738 81.4958 202.975 82.533L101.021 141.341Z" fill="url(#paint10_radial_2_286)"/>
<path d="M129.543 199.837L157.754 216.121C158.584 216.639 159.621 216.639 160.451 216.121L203.805 191.125C204.634 190.606 205.153 189.777 205.153 188.843V156.276C205.153 154.202 202.871 152.957 201.108 153.994L129.543 195.274C127.78 196.207 127.78 198.8 129.543 199.837Z" fill="url(#paint11_radial_2_286)"/>
</g>

<!-- Text part - SaferAI -->
<g transform="translate(220, 40) scale(1.7)">
<g fill="#1a1a1a" fill-opacity="1">
<g transform="translate(14.198348, 64.218407)"><g><path d="M 17.90625 0.53125 C 16.125 0.53125 14.390625 0.304688 12.703125 -0.140625 C 11.023438 -0.585938 9.503906 -1.257812 8.140625 -2.15625 C 6.773438 -3.050781 5.640625 -4.15625 4.734375 -5.46875 C 3.835938 -6.789062 3.273438 -8.332031 3.046875 -10.09375 L 8.140625 -10.09375 C 8.453125 -8.65625 9.078125 -7.441406 10.015625 -6.453125 C 10.953125 -5.472656 12.097656 -4.738281 13.453125 -4.25 C 14.816406 -3.757812 16.296875 -3.515625 17.890625 -3.515625 C 19.671875 -3.515625 21.265625 -3.765625 22.671875 -4.265625 C 24.085938 -4.765625 25.203125 -5.476562 26.015625 -6.40625 C 26.828125 -7.332031 27.234375 -8.445312 27.234375 -9.75 C 27.234375 -10.882812 26.972656 -11.867188 26.453125 -12.703125 C 25.941406 -13.546875 25.195312 -14.25 24.21875 -14.8125 C 23.238281 -15.375 22.046875 -15.8125 20.640625 -16.125 L 13.1875 -17.859375 C 10.382812 -18.472656 8.191406 -19.566406 6.609375 -21.140625 C 5.023438 -22.710938 4.210938 -24.796875 4.171875 -27.390625 C 4.171875 -29.578125 4.753906 -31.503906 5.921875 -33.171875 C 7.085938 -34.835938 8.691406 -36.132812 10.734375 -37.0625 C 12.773438 -37.988281 15.109375 -38.453125 17.734375 -38.453125 C 20.753906 -38.453125 23.296875 -37.9375 25.359375 -36.90625 C 27.429688 -35.875 28.992188 -34.515625 30.046875 -32.828125 C 31.097656 -31.148438 31.632812 -29.359375 31.65625 -27.453125 L 26.640625 -27.453125 C 26.472656 -29.160156 25.960938 -30.519531 25.109375 -31.53125 C 24.265625 -32.539062 23.203125 -33.257812 21.921875 -33.6875 C 20.648438 -34.113281 19.257812 -34.328125 17.75 -34.328125 C 16.664062 -34.328125 15.617188 -34.191406 14.609375 -33.921875 C 13.609375 -33.648438 12.707031 -33.242188 11.90625 -32.703125 C 11.113281 -32.160156 10.476562 -31.484375 10 -30.671875 C 9.53125 -29.867188 9.296875 -28.9375 9.296875 -27.875 C 9.296875 -26.5 9.765625 -25.382812 10.703125 -24.53125 C 11.640625 -23.675781 13.34375 -22.941406 15.8125 -22.328125 L 23.03125 -20.59375 C 24.925781 -20.1875 26.472656 -19.585938 27.671875 -18.796875 C 28.867188 -18.015625 29.796875 -17.125 30.453125 -16.125 C 31.109375 -15.125 31.5625 -14.082031 31.8125 -13 C 32.070312 -11.914062 32.203125 -10.847656 32.203125 -9.796875 C 32.203125 -7.890625 31.628906 -6.148438 30.484375 -4.578125 C 29.347656 -3.015625 27.71875 -1.769531 25.59375 -0.84375 C 23.46875 0.0703125 20.90625 0.53125 17.90625 0.53125 Z M 17.90625 0.53125 "/></g></g></g><g fill="#1a1a1a" fill-opacity="1"><g transform="translate(49.576784, 64.218407)"><g><path d="M 11.53125 0.53125 C 9.78125 0.53125 8.226562 0.21875 6.875 -0.40625 C 5.53125 -1.03125 4.476562 -1.925781 3.71875 -3.09375 C 2.957031 -4.269531 2.578125 -5.691406 2.578125 -7.359375 C 2.578125 -10.367188 3.625 -12.609375 5.71875 -14.078125 C 7.820312 -15.546875 11.195312 -16.332031 15.84375 -16.4375 L 20.703125 -16.578125 L 20.703125 -18.703125 C 20.703125 -20.367188 20.203125 -21.6875 19.203125 -22.65625 C 18.203125 -23.625 16.648438 -24.109375 14.546875 -24.109375 C 12.992188 -24.085938 11.625 -23.71875 10.4375 -23 C 9.257812 -22.289062 8.492188 -21.117188 8.140625 -19.484375 L 3.859375 -19.484375 C 3.960938 -21.253906 4.460938 -22.75 5.359375 -23.96875 C 6.253906 -25.1875 7.5 -26.109375 9.09375 -26.734375 C 10.695312 -27.367188 12.59375 -27.6875 14.78125 -27.6875 C 17.144531 -27.6875 19.109375 -27.351562 20.671875 -26.6875 C 22.242188 -26.019531 23.421875 -25.035156 24.203125 -23.734375 C 24.984375 -22.441406 25.375 -20.851562 25.375 -18.96875 L 25.375 0 L 21.21875 0 L 20.875 -5.09375 C 19.832031 -2.976562 18.5 -1.507812 16.875 -0.6875 C 15.257812 0.125 13.476562 0.53125 11.53125 0.53125 Z M 13 -2.96875 C 13.914062 -2.96875 14.820312 -3.132812 15.71875 -3.46875 C 16.625 -3.800781 17.453125 -4.25 18.203125 -4.8125 C 18.953125 -5.382812 19.550781 -6.023438 20 -6.734375 C 20.445312 -7.441406 20.679688 -8.175781 20.703125 -8.9375 L 20.703125 -13.578125 L 16.65625 -13.5 C 14.582031 -13.46875 12.847656 -13.257812 11.453125 -12.875 C 10.066406 -12.488281 9.023438 -11.882812 8.328125 -11.0625 C 7.640625 -10.238281 7.296875 -9.160156 7.296875 -7.828125 C 7.296875 -6.304688 7.828125 -5.113281 8.890625 -4.25 C 9.953125 -3.394531 11.320312 -2.96875 13 -2.96875 Z M 13 -2.96875 "/></g></g></g><g fill="#1a1a1a" fill-opacity="1"><g transform="translate(79.229535, 64.218407)"><g><path d="M 19.359375 -27.15625 L 19.359375 -23.609375 L 12.765625 -23.609375 L 12.765625 0 L 7.875 0 L 7.875 -23.609375 L 2.15625 -23.609375 L 2.15625 -27.15625 L 7.875 -27.15625 L 7.875 -31.359375 C 7.875 -33.515625 8.425781 -35.15625 9.53125 -36.28125 C 10.632812 -37.414062 12.28125 -37.984375 14.46875 -37.984375 L 19.59375 -37.984375 L 19.625 -34.546875 L 15.546875 -34.546875 C 14.441406 -34.546875 13.6875 -34.242188 13.28125 -33.640625 C 12.882812 -33.046875 12.6875 -32.144531 12.6875 -30.9375 L 12.6875 -27.15625 Z M 19.359375 -27.15625 "/></g></g></g><g fill="#1a1a1a" fill-opacity="1"><g transform="translate(100.556395, 64.218407)"><g><path d="M 7.484375 -12.453125 C 7.484375 -10.734375 7.765625 -9.175781 8.328125 -7.78125 C 8.898438 -6.394531 9.769531 -5.289062 10.9375 -4.46875 C 12.101562 -3.644531 13.5625 -3.234375 15.3125 -3.234375 C 17.039062 -3.234375 18.53125 -3.632812 19.78125 -4.4375 C 21.039062 -5.238281 21.84375 -6.40625 22.1875 -7.9375 L 26.796875 -7.9375 C 26.460938 -6.09375 25.722656 -4.539062 24.578125 -3.28125 C 23.441406 -2.019531 22.066406 -1.066406 20.453125 -0.421875 C 18.847656 0.210938 17.171875 0.53125 15.421875 0.53125 C 12.878906 0.53125 10.644531 -0.0195312 8.71875 -1.125 C 6.789062 -2.226562 5.285156 -3.8125 4.203125 -5.875 C 3.117188 -7.945312 2.578125 -10.425781 2.578125 -13.3125 C 2.578125 -16.164062 3.066406 -18.671875 4.046875 -20.828125 C 5.023438 -22.984375 6.445312 -24.664062 8.3125 -25.875 C 10.175781 -27.082031 12.421875 -27.6875 15.046875 -27.6875 C 17.609375 -27.6875 19.769531 -27.132812 21.53125 -26.03125 C 23.300781 -24.925781 24.644531 -23.367188 25.5625 -21.359375 C 26.488281 -19.359375 26.953125 -16.984375 26.953125 -14.234375 L 26.953125 -12.453125 Z M 7.515625 -15.734375 L 22.265625 -15.734375 C 22.265625 -17.296875 22.003906 -18.703125 21.484375 -19.953125 C 20.960938 -21.203125 20.160156 -22.1875 19.078125 -22.90625 C 18.003906 -23.632812 16.65625 -24 15.03125 -24 C 13.320312 -24 11.910156 -23.59375 10.796875 -22.78125 C 9.691406 -21.96875 8.863281 -20.925781 8.3125 -19.65625 C 7.757812 -18.382812 7.492188 -17.078125 7.515625 -15.734375 Z M 7.515625 -15.734375 "/></g></g></g><g fill="#1a1a1a" fill-opacity="1"><g transform="translate(130.130349, 64.218407)"><g><path d="M 4.015625 0 L 4.015625 -27.15625 L 8.640625 -27.15625 L 8.640625 -21.9375 C 9.097656 -23.226562 9.738281 -24.296875 10.5625 -25.140625 C 11.382812 -25.992188 12.320312 -26.628906 13.375 -27.046875 C 14.4375 -27.472656 15.535156 -27.6875 16.671875 -27.6875 C 17.078125 -27.6875 17.472656 -27.660156 17.859375 -27.609375 C 18.242188 -27.554688 18.539062 -27.46875 18.75 -27.34375 L 18.75 -22.640625 C 18.488281 -22.765625 18.148438 -22.847656 17.734375 -22.890625 C 17.328125 -22.929688 16.984375 -22.953125 16.703125 -22.953125 C 15.617188 -23.023438 14.601562 -22.957031 13.65625 -22.75 C 12.707031 -22.550781 11.875 -22.207031 11.15625 -21.71875 C 10.445312 -21.226562 9.882812 -20.582031 9.46875 -19.78125 C 9.050781 -18.988281 8.84375 -18.023438 8.84375 -16.890625 L 8.84375 0 Z M 4.015625 0 "/></g></g></g><g fill="#1a1a1a" fill-opacity="1"><g transform="translate(150.485422, 64.218407)"><g><path d="M 2.1875 0 L 15.921875 -37.984375 L 21.40625 -37.984375 L 35.140625 0 L 30.171875 0 L 26.453125 -10.40625 L 10.921875 -10.40625 L 7.125 0 Z M 12.15625 -14.859375 L 25.15625 -14.859375 L 18.703125 -33.171875 Z M 12.15625 -14.859375 "/></g></g></g><g fill="#1a1a1a" fill-opacity="1"><g transform="translate(187.781173, 64.218407)"><g><path d="M 5.015625 -37.984375 L 9.875 -37.984375 L 9.875 0 L 5.015625 0 Z M 5.015625 -37.984375 "/></g></g></g>
</g>

<defs>
<radialGradient id="paint0_radial_2_286" cx="0" cy="0" r="1" gradientUnits="userSpaceOnUse" gradientTransform="translate(90.8828 196.197) scale(340.314 340.314)">
<stop stop-color="#00FFA4"/>
<stop offset="0.5091" stop-color="#008ADB"/>
<stop offset="1" stop-color="#003057"/>
</radialGradient>
<radialGradient id="paint1_radial_2_286" cx="0" cy="0" r="1" gradientUnits="userSpaceOnUse" gradientTransform="translate(90.8828 196.197) scale(340.314 340.314)">
<stop stop-color="#00FFA4"/>
<stop offset="0.5091" stop-color="#008ADB"/>
<stop offset="1" stop-color="#003057"/>
</radialGradient>
<radialGradient id="paint2_radial_2_286" cx="0" cy="0" r="1" gradientUnits="userSpaceOnUse" gradientTransform="translate(90.8828 196.196) scale(340.314 340.314)">
<stop stop-color="#00FFA4"/>
<stop offset="0.5091" stop-color="#008ADB"/>
<stop offset="1" stop-color="#003057"/>
</radialGradient>
<radialGradient id="paint3_radial_2_286" cx="0" cy="0" r="1" gradientUnits="userSpaceOnUse" gradientTransform="translate(90.8828 196.197) scale(340.314 340.314)">
<stop stop-color="#00FFA4"/>
<stop offset="0.5091" stop-color="#008ADB"/>
<stop offset="1" stop-color="#003057"/>
</radialGradient>
<radialGradient id="paint4_radial_2_286" cx="0" cy="0" r="1" gradientUnits="userSpaceOnUse" gradientTransform="translate(90.8826 196.197) scale(340.314 340.314)">
<stop stop-color="#00FFA4"/>
<stop offset="0.5091" stop-color="#008ADB"/>
<stop offset="1" stop-color="#003057"/>
</radialGradient>
<radialGradient id="paint5_radial_2_286" cx="0" cy="0" r="1" gradientUnits="userSpaceOnUse" gradientTransform="translate(90.8827 196.197) scale(340.314 340.314)">
<stop stop-color="#00FFA4"/>
<stop offset="0.5091" stop-color="#008ADB"/>
<stop offset="1" stop-color="#003057"/>
</radialGradient>
<radialGradient id="paint6_radial_2_286" cx="0" cy="0" r="1" gradientUnits="userSpaceOnUse" gradientTransform="translate(90.8829 196.197) scale(340.314 340.314)">
<stop stop-color="#00FFA4"/>
<stop offset="0.5091" stop-color="#008ADB"/>
<stop offset="1" stop-color="#003057"/>
</radialGradient>
<radialGradient id="paint7_radial_2_286" cx="0" cy="0" r="1" gradientUnits="userSpaceOnUse" gradientTransform="translate(90.8828 196.197) scale(340.314 340.314)">
<stop stop-color="#00FFA4"/>
<stop offset="0.5091" stop-color="#008ADB"/>
<stop offset="1" stop-color="#003057"/>
</radialGradient>
<radialGradient id="paint8_radial_2_286" cx="0" cy="0" r="1" gradientUnits="userSpaceOnUse" gradientTransform="translate(90.8827 196.196) scale(340.314 340.314)">
<stop stop-color="#00FFA4"/>
<stop offset="0.5091" stop-color="#008ADB"/>
<stop offset="1" stop-color="#003057"/>
</radialGradient>
<radialGradient id="paint9_radial_2_286" cx="0" cy="0" r="1" gradientUnits="userSpaceOnUse" gradientTransform="translate(90.8827 196.197) scale(340.314 340.314)">
<stop stop-color="#00FFA4"/>
<stop offset="0.5091" stop-color="#008ADB"/>
<stop offset="1" stop-color="#003057"/>
</radialGradient>
<radialGradient id="paint10_radial_2_286" cx="0" cy="0" r="1" gradientUnits="userSpaceOnUse" gradientTransform="translate(90.8826 196.197) scale(340.314 340.314)">
<stop stop-color="#00FFA4"/>
<stop offset="0.5091" stop-color="#008ADB"/>
<stop offset="1" stop-color="#003057"/>
</radialGradient>
<radialGradient id="paint11_radial_2_286" cx="0" cy="0" r="1" gradientUnits="userSpaceOnUse" gradientTransform="translate(90.8829 196.197) scale(340.314 340.314)">
<stop stop-color="#00FFA4"/>
<stop offset="0.5091" stop-color="#008ADB"/>
<stop offset="1" stop-color="#003057"/>
</radialGradient>
</defs>
</svg>
